<?xml version="1.0" encoding="UTF-8" standalone="no"?>
<svg width="192" height="192" viewBox="0 0 192 192" fill="none" xmlns="http://www.w3.org/2000/svg">
  <rect width="192" height="192" rx="42" fill="#1976D2"/>
  <g transform="translate(40, 40)">
    <!-- User icon -->
    <circle cx="56" cy="36" r="28" fill="white" opacity="0.9"/>
    <path d="M56 40C64.8366 40 72 32.8366 72 24C72 15.1634 64.8366 8 56 8C47.1634 8 40 15.1634 40 24C40 32.8366 47.1634 40 56 40Z" fill="#1976D2"/>
    <path d="M96 100C96 78.6667 78.5 64 56 64C33.5 64 16 78.6667 16 100" stroke="white" stroke-width="16" stroke-linecap="round"/>
    
    <!-- Edit icon overlay -->
    <circle cx="96" cy="96" r="20" fill="#FFA000"/>
    <path d="M91 102L85 96L86.5 94.5L91 99L105.5 84.5L107 86L91 102Z" fill="white"/>
  </g>
</svg>